<?xml version="1.0" encoding="utf-8"?>
<svg viewBox="172.413 145.19 220.904 216.015" width="220.904" height="216.015" xmlns="http://www.w3.org/2000/svg">
  <path d="M 195.877 145.19 H 369.853 A 23.464 23.464 0 0 1 393.317 168.654 V 337.741 A 23.464 23.464 0 0 1 369.853 361.205 H 195.877 A 23.464 23.464 0 0 1 172.413 337.741 V 168.654 A 23.464 23.464 0 0 1 195.877 145.19 Z" style=""/>
  <path d="M 211.057 322.047 L 211.057 180.922 L 239.282 180.922 L 239.282 209.147 L 267.507 209.147 L 267.507 237.372 L 295.732 237.372 L 295.732 265.597 L 267.507 265.597 L 267.507 237.372 L 239.282 237.372 L 239.282 322.047 Z M 323.957 322.047 L 323.957 237.372 L 295.732 237.372 L 295.732 209.147 L 323.957 209.147 L 323.957 180.922 L 352.182 180.922 L 352.182 322.047 Z" style="fill: rgb(255, 255, 255); white-space: pre;"/>
</svg>